#!OML:ASF X:\für Bonn\!DataBase\2005_08_12_Daniel\c3d\Daniel.ASF
:FULLY-SPECIFIED
:DEGREES
1
root 3.95987 17.0099 0.628425 -185.83 -87.8869 180.784
lowerback 23.523 -1.08811 2.69397
upperback 6.6042 -1.43567 -1.78773
thorax -5.93723 -0.922395 -3.06175
lowerneck -1.7291 0.943233 0.473695
upperneck -2.53942 1.15786 -3.69582
head -0.464859 0.576144 -1.2106
rclavicle -4.37326e-015 1.19271e-014
rhumerus -29.855 13.0818 -99.6952
rradius 49.0742
rwrist 12.0168
rhand -18.4994 13.4329
rfingers 7.12502
rthumb 7.78834 343.596
lclavicle -4.37326e-015 1.19271e-014
lhumerus -206.961 191.04 -81.1404
lradius 56.941
lwrist 8.08214
lhand -14.8308 3.4382
lfingers 7.12502
lthumb 11.3279 33.1123
rfemur -3.05064 17.4978 17.9547
rtibia 29.9725
rfoot 316.096 -28.3254
rtoes -4.62717
lfemur -15.4104 -10.1096 -12.8809
ltibia 39.9707
lfoot -21.1935 -2.23461
ltoes -1.11025
2
root 3.95563 17.0155 0.677113 -182.404 -87.8805 177.398
lowerback 23.7687 -1.05725 2.6194
upperback 6.6515 -1.42479 -1.88679
thorax -6.00999 -0.920711 -3.12811
lowerneck -1.83147 0.899256 0.363335
upperneck -2.25545 1.11476 -3.54721
head -0.362985 0.552045 -1.14304
rclavicle 1.68967e-015 3.57812e-015
rhumerus -29.6315 13.3398 -99.9343
rradius 49.1316
rwrist 12.0575
rhand -18.643 13.4343
rfingers 7.12502
rthumb 7.64977 343.593
lclavicle 1.68967e-015 3.57812e-015
lhumerus -206.836 191.187 -81.0315
lradius 56.8162
lwrist 8.06193
lhand -14.8692 3.4564
lfingers 7.12502
lthumb 11.2909 33.1325
rfemur -3.11943 16.7494 17.4134
rtibia 29.8173
rfoot 317.071 -28.127
rtoes -4.86677
lfemur -15.4016 -10.1267 -13.2202
ltibia 39.9216
lfoot -21.2313 -2.14177
ltoes -0.946601
3
root 3.95195 17.0187 0.72687 -179.573 -87.8614 174.608
lowerback 24.0091 -1.03062 2.55957
upperback 6.70489 -1.41634 -1.97551
thorax -6.0732 -0.92029 -3.19131
lowerneck -1.95863 0.873525 0.227066
upperneck -1.93126 1.09807 -3.36505
head -0.244865 0.540848 -1.06078
rclavicle 7.55382e-015 7.55382e-015
rhumerus -29.4097 13.6436 -100.14
rradius 49.2191
rwrist 12.0864
rhand -18.7585 13.3998
rfingers 7.12502
rthumb 7.53826 343.554
lclavicle 7.55382e-015 7.55382e-015
lhumerus -206.67 191.33 -80.9259
lradius 56.6418
lwrist 8.11413
lhand -14.898 3.45066
lfingers 7.12502
lthumb 11.2631 33.1283
rfemur -3.19719 15.9343 16.8796
rtibia 29.6701
rfoot 318.04 -27.8111
rtoes -5.07099
lfemur -15.4095 -10.195 -13.5424
ltibia 39.8998
lfoot -21.2999 -1.98459
ltoes -0.892172
4
root 3.94811 17.021 0.776404 -176.314 -87.8146 171.402
lowerback 24.2258 -0.991506 2.47288
upperback 6.76163 -1.39962 -2.06881
thorax -6.11958 -0.915521 -3.2469
lowerneck -2.04346 0.841748 0.116266
upperneck -1.61866 1.07115 -3.21994
head -0.137516 0.524955 -0.995366
rclavicle -1.82882e-014 -4.69132e-014
rhumerus -29.136 13.9586 -100.312
rradius 49.2606
rwrist 12.1398
rhand -18.8997 13.3711
rfingers 7.12502
rthumb 7.40194 343.521
lclavicle -1.82882e-014 -4.69132e-014
lhumerus -206.465 191.443 -80.8244
lradius 56.4243
lwrist 8.13899
lhand -14.8737 3.52072
lfingers 7.12502
lthumb 11.2866 33.1971
rfemur -3.30262 15.1332 16.3238
rtibia 29.5561
rfoot 319.014 -27.466
rtoes -5.16905
lfemur -15.4231 -10.2493 -13.8861
ltibia 39.8879
lfoot -21.3951 -1.8424
ltoes -0.810515
5
root 3.94482 17.0251 0.826548 -173.695 -87.7574 168.825
lowerback 24.4396 -0.959642 2.42283
upperback 6.81498 -1.38469 -2.17129
thorax -6.16881 -0.911838 -3.33344
lowerneck -2.03211 0.816235 0.00216923
upperneck -1.32285 1.05162 -3.03189
head -0.0514765 0.514123 -0.917029
rclavicle 1.31198e-014 2.46493e-014
rhumerus -28.9052 14.281 -100.481
rradius 49.3401
rwrist 12.1433
rhand -19.0304 13.296
rfingers 7.12502
rthumb 7.27576 343.441
lclavicle 1.31198e-014 2.46493e-014
lhumerus -206.298 191.559 -80.7513
lradius 56.2064
lwrist 8.17791
lhand -14.9125 3.56511
lfingers 7.12502
lthumb 11.2491 33.2435
rfemur -3.42675 14.2377 15.7695
rtibia 29.4753
rfoot 320.078 -27.0937
rtoes -5.49335
lfemur -15.4299 -10.3058 -14.2128
ltibia 39.8756
lfoot -21.4702 -1.68825
ltoes -0.692885
6
root 3.94131 17.0302 0.876606 -170.893 -87.6846 166.053
lowerback 24.6391 -0.915028 2.35215
upperback 6.89114 -1.36031 -2.26821
thorax -6.18425 -0.903502 -3.40517
lowerneck -2.00137 0.783584 -0.112524
upperneck -1.05513 1.0202 -2.87038
head 0.0226735 0.497595 -0.847489
rclavicle 1.39149e-015 5.1684e-015
rhumerus -28.6215 14.6086 -100.592
rradius 49.3803
rwrist 12.2155
rhand -19.2349 13.2447
rfingers 7.12502
rthumb 7.07842 343.383
lclavicle 1.39149e-015 5.1684e-015
lhumerus -206.092 191.71 -80.6707
lradius 55.9859
lwrist 8.26568
lhand -14.902 3.68402
lfingers 7.12502
lthumb 11.2593 33.3618
rfemur -3.56619 13.3502 15.2113
rtibia 29.4414
rfoot 321.175 -26.7954
rtoes -5.85182
lfemur -15.4089 -10.4001 -14.563
ltibia 39.8512
lfoot -21.553 -1.47676
ltoes -0.559789
7
root 3.93794 17.0353 0.926994 -168.829 -87.5765 164.029
lowerback 24.8442 -0.860673 2.28579
upperback 6.94953 -1.32126 -2.36021
thorax -6.22051 -0.888191 -3.47857
lowerneck -1.94302 0.759831 -0.219667
upperneck -0.7413 1.00094 -2.69978
head 0.106393 0.48702 -0.776738
rclavicle 3.57812e-015 1.66979e-014
rhumerus -28.365 14.8973 -100.688
rradius 49.4325
rwrist 12.3662
rhand -19.4002 13.0937
rfingers 7.12502
rthumb 6.91885 343.227
lclavicle 3.57812e-015 1.66979e-014
lhumerus -205.915 191.857 -80.583
lradius 55.7397
lwrist 8.32638
lhand -14.9803 3.86468
lfingers 7.12502
lthumb 11.1837 33.5466
rfemur -3.74596 12.464 14.66
rtibia 29.4564
rfoot 322.284 -26.4389
rtoes -6.20064
lfemur -15.3936 -10.4732 -14.893
ltibia 39.8152
lfoot -21.6417 -1.2749
ltoes -0.394698
8
root 3.93628 17.0397 0.976599 -166.994 -87.4669 162.227
lowerback 25.0497 -0.812605 2.22709
upperback 7.0207 -1.29149 -2.46687
thorax -6.24371 -0.877639 -3.57012
lowerneck -1.81138 0.739853 -0.279642
upperneck -0.498187 0.982152 -2.54953
head 0.157021 0.477689 -0.720747
rclavicle -4.37326e-015 2.38542e-015
rhumerus -28.0525 15.1342 -100.791
rradius 49.4332
rwrist 12.5886
rhand -19.6538 12.9082
rfingers 7.12502
rthumb 6.67401 343.033
lclavicle -4.37326e-015 2.38542e-015
lhumerus -205.723 192.002 -80.5469
lradius 55.4982
lwrist 8.46001
lhand -15.0471 4.02134
lfingers 7.12502
lthumb 11.1194 33.7068
rfemur -3.94443 11.6006 14.1261
rtibia 29.5136
rfoot 323.304 -26.0555
rtoes -6.51436
lfemur -15.3708 -10.5945 -15.2208
ltibia 39.7761
lfoot -21.7259 -1.03613
ltoes -0.214254
9
root 3.93502 17.0445 1.02662 -165.404 -87.3377 160.688
lowerback 25.2327 -0.759156 2.15671
upperback 7.09471 -1.25732 -2.56126
thorax -6.25142 -0.86468 -3.6431
lowerneck -1.72246 0.720979 -0.350949
upperneck -0.194372 0.965947 -2.40659
head 0.233103 0.468635 -0.665134
rclavicle 1.17283e-014 2.42517e-014
rhumerus -27.7368 15.3957 -100.85
rradius 49.4611
rwrist 12.7638
rhand -19.9004 12.6146
rfingers 7.12502
rthumb 6.43594 342.732
lclavicle 1.17283e-014 2.42517e-014
lhumerus -205.508 192.111 -80.5028
lradius 55.214
lwrist 8.55569
lhand -15.0715 4.18396
lfingers 7.12502
lthumb 11.0958 33.8706
rfemur -4.18742 10.7135 13.5839
rtibia 29.602
rfoot 324.373 -25.6569
rtoes -6.96723
lfemur -15.3715 -10.739 -15.553
ltibia 39.7389
lfoot -21.8357 -0.739819
ltoes -0.156908
10
root 3.93445 17.0487 1.07621 -163.671 -87.1947 158.997
lowerback 25.4295 -0.697938 2.07521
upperback 7.17246 -1.21783 -2.66401
thorax -6.26113 -0.849474 -3.72075
lowerneck -1.59103 0.699167 -0.465733
upperneck 0.0564075 0.943737 -2.20843
head 0.285412 0.457548 -0.585844
rclavicle -5.36719e-015 0
rhumerus -27.3871 15.4894 -100.885
rradius 49.425
rwrist 13.1384
rhand -20.1988 12.3138
rfingers 7.12502
rthumb 6.14787 342.423
lclavicle -5.36719e-015 0
lhumerus -205.292 192.271 -80.465
lradius 54.9348
lwrist 8.68501
lhand -15.1516 4.35424
lfingers 7.12502
lthumb 11.0186 34.045
rfemur -4.44484 9.81106 13.0187
rtibia 29.7257
rfoot 325.39 -25.2173
rtoes -7.33121
lfemur -15.3622 -10.9499 -15.906
ltibia 39.702
lfoot -21.9187 -0.397102
ltoes -0.00179268
11
root 3.93498 17.0528 1.12456 -162.985 -87.0327 158.35
lowerback 25.6217 -0.624713 2.01266
upperback 7.26571 -1.15939 -2.75779
thorax -6.24948 -0.825389 -3.80551
lowerneck -1.50762 0.685618 -0.531429
upperneck 0.358715 0.932302 -2.04194
head 0.361988 0.450869 -0.524373
rclavicle -1.98785e-015 3.18055e-015
rhumerus -26.9779 15.6216 -100.905
rradius 49.3839
rwrist 13.4662
rhand -20.5578 11.9458
rfingers 7.12502
rthumb 5.80125 342.045
lclavicle -1.98785e-015 3.18055e-015
lhumerus -205.053 192.449 -80.4469
lradius 54.6443
lwrist 8.86502
lhand -15.2815 4.48101
lfingers 7.12502
lthumb 10.8932 34.1785
rfemur -4.7333 8.93192 12.5131
rtibia 29.8886
rfoot 326.443 -24.8239
rtoes -7.85903
lfemur -15.3477 -11.1442 -16.2164
ltibia 39.6714
lfoot -22.0306 -0.0316874
ltoes 0.141121
